<?xml version="1.0" standalone="yes"?>
<!-- SVG graphic -->
<svg xmlns='http://www.w3.org/2000/svg' xmlns:xlink='http://www.w3.org/1999/xlink'
width="70px" height="70px" preserveAspectRatio="xMinYMin meet" viewBox="0 0 70 70" version="1.1">
<rect x="5" y="0" width="2.5" height="2.5" fill="rgb(203,0,51)"><title>(1,0 1890)</title></rect>
<rect x="10" y="0" width="2.5" height="2.5" fill="rgb(121,0,133)"><title>(2,0 1134)</title></rect>
<rect x="15" y="0" width="2.5" height="2.5" fill="rgb(73,0,181)"><title>(3,0 686)</title></rect>
<rect x="20" y="0" width="2.5" height="2.5" fill="rgb(59,0,195)"><title>(4,0 549)</title></rect>
<rect x="25" y="0" width="2.5" height="2.5" fill="rgb(32,0,222)"><title>(5,0 306)</title></rect>
<rect x="30" y="0" width="2.5" height="2.5" fill="rgb(26,0,228)"><title>(6,0 246)</title></rect>
<rect x="35" y="0" width="2.5" height="2.5" fill="rgb(26,0,228)"><title>(7,0 247)</title></rect>
<rect x="40" y="0" width="2.5" height="2.5" fill="rgb(20,0,234)"><title>(8,0 193)</title></rect>
<rect x="10" y="5" width="2.5" height="2.5" fill="rgb(255,0,0)"><title>(2,1 2371)</title></rect>
<rect x="15" y="5" width="2.5" height="2.5" fill="rgb(141,0,113)"><title>(3,1 1318)</title></rect>
<rect x="20" y="5" width="2.5" height="2.5" fill="rgb(109,0,145)"><title>(4,1 1020)</title></rect>
<rect x="25" y="5" width="2.5" height="2.5" fill="rgb(63,0,191)"><title>(5,1 591)</title></rect>
<rect x="30" y="5" width="2.5" height="2.5" fill="rgb(53,0,201)"><title>(6,1 493)</title></rect>
<rect x="35" y="5" width="2.5" height="2.5" fill="rgb(47,0,207)"><title>(7,1 444)</title></rect>
<rect x="40" y="5" width="2.5" height="2.5" fill="rgb(25,0,229)"><title>(8,1 239)</title></rect>
<rect x="15" y="10" width="2.5" height="2.5" fill="rgb(241,0,13)"><title>(3,2 2243)</title></rect>
<rect x="20" y="10" width="2.5" height="2.5" fill="rgb(172,0,82)"><title>(4,2 1604)</title></rect>
<rect x="25" y="10" width="2.5" height="2.5" fill="rgb(97,0,157)"><title>(5,2 908)</title></rect>
<rect x="30" y="10" width="2.5" height="2.5" fill="rgb(77,0,177)"><title>(6,2 725)</title></rect>
<rect x="35" y="10" width="2.5" height="2.5" fill="rgb(54,0,200)"><title>(7,2 507)</title></rect>
<rect x="40" y="10" width="2.5" height="2.5" fill="rgb(34,0,220)"><title>(8,2 318)</title></rect>
<rect x="45" y="10" width="2.5" height="2.5" fill="rgb(5,0,249)"><title>(9,2 53)</title></rect>
<rect x="20" y="15" width="2.5" height="2.5" fill="rgb(195,0,59)"><title>(4,3 1819)</title></rect>
<rect x="25" y="15" width="2.5" height="2.5" fill="rgb(117,0,137)"><title>(5,3 1093)</title></rect>
<rect x="30" y="15" width="2.5" height="2.5" fill="rgb(94,0,160)"><title>(6,3 880)</title></rect>
<rect x="35" y="15" width="2.5" height="2.5" fill="rgb(67,0,187)"><title>(7,3 624)</title></rect>
<rect x="40" y="15" width="2.5" height="2.5" fill="rgb(41,0,213)"><title>(8,3 385)</title></rect>
<rect x="45" y="15" width="2.5" height="2.5" fill="rgb(7,0,247)"><title>(9,3 73)</title></rect>
<rect x="50" y="15" width="2.5" height="2.5" fill="rgb(9,0,245)"><title>(10,3 91)</title></rect>
<rect x="25" y="20" width="2.5" height="2.5" fill="rgb(173,0,81)"><title>(5,4 1612)</title></rect>
<rect x="30" y="20" width="2.5" height="2.5" fill="rgb(113,0,141)"><title>(6,4 1053)</title></rect>
<rect x="35" y="20" width="2.5" height="2.5" fill="rgb(102,0,152)"><title>(7,4 952)</title></rect>
<rect x="40" y="20" width="2.5" height="2.5" fill="rgb(60,0,194)"><title>(8,4 565)</title></rect>
<rect x="45" y="20" width="2.5" height="2.5" fill="rgb(9,0,245)"><title>(9,4 91)</title></rect>
<rect x="50" y="20" width="2.5" height="2.5" fill="rgb(10,0,244)"><title>(10,4 102)</title></rect>
<rect x="30" y="25" width="2.5" height="2.5" fill="rgb(150,0,104)"><title>(6,5 1399)</title></rect>
<rect x="35" y="25" width="2.5" height="2.5" fill="rgb(118,0,136)"><title>(7,5 1106)</title></rect>
<rect x="40" y="25" width="2.5" height="2.5" fill="rgb(74,0,180)"><title>(8,5 692)</title></rect>
<rect x="45" y="25" width="2.5" height="2.5" fill="rgb(14,0,240)"><title>(9,5 138)</title></rect>
<rect x="50" y="25" width="2.5" height="2.5" fill="rgb(10,0,244)"><title>(10,5 95)</title></rect>
<rect x="35" y="30" width="2.5" height="2.5" fill="rgb(170,0,84)"><title>(7,6 1589)</title></rect>
<rect x="40" y="30" width="2.5" height="2.5" fill="rgb(100,0,154)"><title>(8,6 930)</title></rect>
<rect x="45" y="30" width="2.5" height="2.5" fill="rgb(20,0,234)"><title>(9,6 188)</title></rect>
<rect x="50" y="30" width="2.5" height="2.5" fill="rgb(12,0,242)"><title>(10,6 120)</title></rect>
<rect x="40" y="35" width="2.5" height="2.5" fill="rgb(166,0,88)"><title>(8,7 1547)</title></rect>
<rect x="45" y="35" width="2.5" height="2.5" fill="rgb(30,0,224)"><title>(9,7 288)</title></rect>
<rect x="50" y="35" width="2.5" height="2.5" fill="rgb(28,0,226)"><title>(10,7 269)</title></rect>
<rect x="45" y="40" width="2.5" height="2.5" fill="rgb(58,0,196)"><title>(9,8 543)</title></rect>
<rect x="50" y="40" width="2.5" height="2.5" fill="rgb(48,0,206)"><title>(10,8 452)</title></rect>
<rect x="50" y="45" width="2.5" height="2.5" fill="rgb(27,0,227)"><title>(10,9 254)</title></rect>
<text x="60" y="5" font-size="5" fill="black">0</text>
<text x="60" y="50" font-size="5" fill="black">11</text>
<polyline points="60,10,60,45" stroke="black" stroke-width="1" fill="none"></polyline>
<text x="5" y="60" font-size="5" fill="black">0</text>
<text x="50" y="60" font-size="5" fill="black">11</text>
<polyline points="10,60,45,60" stroke="black" stroke-width="1" fill="none"></polyline>
</svg>