<?xml version="1.0" standalone="yes"?>
<!-- SVG graphic -->
<svg xmlns='http://www.w3.org/2000/svg' xmlns:xlink='http://www.w3.org/1999/xlink'
width="70px" height="70px" preserveAspectRatio="xMinYMin meet" viewBox="0 0 70 70" version="1.1">
<rect x="5" y="0" width="2.5" height="2.5" fill="rgb(232,0,22)"><title>(1,0 2446)</title></rect>
<rect x="10" y="0" width="2.5" height="2.5" fill="rgb(146,0,108)"><title>(2,0 1541)</title></rect>
<rect x="15" y="0" width="2.5" height="2.5" fill="rgb(105,0,149)"><title>(3,0 1116)</title></rect>
<rect x="20" y="0" width="2.5" height="2.5" fill="rgb(87,0,167)"><title>(4,0 922)</title></rect>
<rect x="25" y="0" width="2.5" height="2.5" fill="rgb(56,0,198)"><title>(5,0 590)</title></rect>
<rect x="30" y="0" width="2.5" height="2.5" fill="rgb(44,0,210)"><title>(6,0 471)</title></rect>
<rect x="35" y="0" width="2.5" height="2.5" fill="rgb(48,0,206)"><title>(7,0 508)</title></rect>
<rect x="40" y="0" width="2.5" height="2.5" fill="rgb(36,0,218)"><title>(8,0 388)</title></rect>
<rect x="45" y="0" width="2.5" height="2.5" fill="rgb(16,0,238)"><title>(9,0 171)</title></rect>
<rect x="50" y="0" width="2.5" height="2.5" fill="rgb(30,0,224)"><title>(10,0 326)</title></rect>
<rect x="10" y="5" width="2.5" height="2.5" fill="rgb(255,0,0)"><title>(2,1 2686)</title></rect>
<rect x="15" y="5" width="2.5" height="2.5" fill="rgb(181,0,73)"><title>(3,1 1915)</title></rect>
<rect x="20" y="5" width="2.5" height="2.5" fill="rgb(139,0,115)"><title>(4,1 1467)</title></rect>
<rect x="25" y="5" width="2.5" height="2.5" fill="rgb(90,0,164)"><title>(5,1 949)</title></rect>
<rect x="30" y="5" width="2.5" height="2.5" fill="rgb(74,0,180)"><title>(6,1 788)</title></rect>
<rect x="35" y="5" width="2.5" height="2.5" fill="rgb(68,0,186)"><title>(7,1 721)</title></rect>
<rect x="40" y="5" width="2.5" height="2.5" fill="rgb(49,0,205)"><title>(8,1 526)</title></rect>
<rect x="45" y="5" width="2.5" height="2.5" fill="rgb(15,0,239)"><title>(9,1 159)</title></rect>
<rect x="50" y="5" width="2.5" height="2.5" fill="rgb(33,0,221)"><title>(10,1 349)</title></rect>
<rect x="15" y="10" width="2.5" height="2.5" fill="rgb(245,0,9)"><title>(3,2 2586)</title></rect>
<rect x="20" y="10" width="2.5" height="2.5" fill="rgb(180,0,74)"><title>(4,2 1901)</title></rect>
<rect x="25" y="10" width="2.5" height="2.5" fill="rgb(114,0,140)"><title>(5,2 1202)</title></rect>
<rect x="30" y="10" width="2.5" height="2.5" fill="rgb(88,0,166)"><title>(6,2 934)</title></rect>
<rect x="35" y="10" width="2.5" height="2.5" fill="rgb(80,0,174)"><title>(7,2 850)</title></rect>
<rect x="40" y="10" width="2.5" height="2.5" fill="rgb(57,0,197)"><title>(8,2 603)</title></rect>
<rect x="45" y="10" width="2.5" height="2.5" fill="rgb(13,0,241)"><title>(9,2 142)</title></rect>
<rect x="50" y="10" width="2.5" height="2.5" fill="rgb(29,0,225)"><title>(10,2 316)</title></rect>
<rect x="20" y="15" width="2.5" height="2.5" fill="rgb(213,0,41)"><title>(4,3 2248)</title></rect>
<rect x="25" y="15" width="2.5" height="2.5" fill="rgb(134,0,120)"><title>(5,3 1413)</title></rect>
<rect x="30" y="15" width="2.5" height="2.5" fill="rgb(112,0,142)"><title>(6,3 1181)</title></rect>
<rect x="35" y="15" width="2.5" height="2.5" fill="rgb(90,0,164)"><title>(7,3 958)</title></rect>
<rect x="40" y="15" width="2.5" height="2.5" fill="rgb(55,0,199)"><title>(8,3 588)</title></rect>
<rect x="45" y="15" width="2.5" height="2.5" fill="rgb(17,0,237)"><title>(9,3 187)</title></rect>
<rect x="50" y="15" width="2.5" height="2.5" fill="rgb(26,0,228)"><title>(10,3 282)</title></rect>
<rect x="25" y="20" width="2.5" height="2.5" fill="rgb(185,0,69)"><title>(5,4 1953)</title></rect>
<rect x="30" y="20" width="2.5" height="2.5" fill="rgb(138,0,116)"><title>(6,4 1464)</title></rect>
<rect x="35" y="20" width="2.5" height="2.5" fill="rgb(118,0,136)"><title>(7,4 1245)</title></rect>
<rect x="40" y="20" width="2.5" height="2.5" fill="rgb(73,0,181)"><title>(8,4 772)</title></rect>
<rect x="45" y="20" width="2.5" height="2.5" fill="rgb(18,0,236)"><title>(9,4 197)</title></rect>
<rect x="50" y="20" width="2.5" height="2.5" fill="rgb(29,0,225)"><title>(10,4 309)</title></rect>
<rect x="30" y="25" width="2.5" height="2.5" fill="rgb(184,0,70)"><title>(6,5 1944)</title></rect>
<rect x="35" y="25" width="2.5" height="2.5" fill="rgb(136,0,118)"><title>(7,5 1440)</title></rect>
<rect x="40" y="25" width="2.5" height="2.5" fill="rgb(88,0,166)"><title>(8,5 930)</title></rect>
<rect x="45" y="25" width="2.5" height="2.5" fill="rgb(25,0,229)"><title>(9,5 268)</title></rect>
<rect x="50" y="25" width="2.5" height="2.5" fill="rgb(29,0,225)"><title>(10,5 314)</title></rect>
<rect x="35" y="30" width="2.5" height="2.5" fill="rgb(188,0,66)"><title>(7,6 1983)</title></rect>
<rect x="40" y="30" width="2.5" height="2.5" fill="rgb(118,0,136)"><title>(8,6 1244)</title></rect>
<rect x="45" y="30" width="2.5" height="2.5" fill="rgb(31,0,223)"><title>(9,6 333)</title></rect>
<rect x="50" y="30" width="2.5" height="2.5" fill="rgb(33,0,221)"><title>(10,6 357)</title></rect>
<rect x="40" y="35" width="2.5" height="2.5" fill="rgb(182,0,72)"><title>(8,7 1924)</title></rect>
<rect x="45" y="35" width="2.5" height="2.5" fill="rgb(41,0,213)"><title>(9,7 439)</title></rect>
<rect x="50" y="35" width="2.5" height="2.5" fill="rgb(58,0,196)"><title>(10,7 616)</title></rect>
<rect x="45" y="40" width="2.5" height="2.5" fill="rgb(70,0,184)"><title>(9,8 742)</title></rect>
<rect x="50" y="40" width="2.5" height="2.5" fill="rgb(86,0,168)"><title>(10,8 907)</title></rect>
<rect x="50" y="45" width="2.5" height="2.5" fill="rgb(62,0,192)"><title>(10,9 656)</title></rect>
<text x="60" y="5" font-size="5" fill="black">0</text>
<text x="60" y="50" font-size="5" fill="black">11</text>
<polyline points="60,10,60,45" stroke="black" stroke-width="1" fill="none"></polyline>
<text x="5" y="60" font-size="5" fill="black">0</text>
<text x="50" y="60" font-size="5" fill="black">11</text>
<polyline points="10,60,45,60" stroke="black" stroke-width="1" fill="none"></polyline>
</svg>