<?xml version="1.0" standalone="yes"?>
<!-- SVG graphic -->
<svg xmlns='http://www.w3.org/2000/svg' xmlns:xlink='http://www.w3.org/1999/xlink'
 version="1.1">
<rect x="0" y="1.52588e-05" width="6" height="200" stroke="black" stroke-width="1" fill="blue"><title>(0,2759)</title></rect>
<rect x="6" y="58.9344" width="6" height="141.066" stroke="black" stroke-width="1" fill="blue"><title>(0.0399159,1946)</title></rect>
<rect x="12" y="83.3635" width="6" height="116.636" stroke="black" stroke-width="1" fill="blue"><title>(0.0798319,1609)</title></rect>
<rect x="18" y="91.4099" width="6" height="108.59" stroke="black" stroke-width="1" fill="blue"><title>(0.119748,1498)</title></rect>
<rect x="24" y="98.079" width="6" height="101.921" stroke="black" stroke-width="1" fill="blue"><title>(0.159664,1406)</title></rect>
<rect x="30" y="111.055" width="6" height="88.9453" stroke="black" stroke-width="1" fill="blue"><title>(0.19958,1227)</title></rect>
<rect x="36" y="114.752" width="6" height="85.2483" stroke="black" stroke-width="1" fill="blue"><title>(0.239496,1176)</title></rect>
<rect x="42" y="118.086" width="6" height="81.9137" stroke="black" stroke-width="1" fill="blue"><title>(0.279412,1130)</title></rect>
<rect x="48" y="121.783" width="6" height="78.2167" stroke="black" stroke-width="1" fill="blue"><title>(0.319327,1079)</title></rect>
<rect x="54" y="122.871" width="6" height="77.1294" stroke="black" stroke-width="1" fill="blue"><title>(0.359243,1064)</title></rect>
<rect x="60" y="131.062" width="6" height="68.938" stroke="black" stroke-width="1" fill="blue"><title>(0.399159,951)</title></rect>
<rect x="66" y="133.527" width="6" height="66.4734" stroke="black" stroke-width="1" fill="blue"><title>(0.439075,917)</title></rect>
<rect x="72" y="139.616" width="6" height="60.3842" stroke="black" stroke-width="1" fill="blue"><title>(0.478991,833)</title></rect>
<rect x="78" y="142.805" width="6" height="57.1946" stroke="black" stroke-width="1" fill="blue"><title>(0.518907,789)</title></rect>
<rect x="84" y="144.473" width="6" height="55.5274" stroke="black" stroke-width="1" fill="blue"><title>(0.558823,766)</title></rect>
<rect x="90" y="146.647" width="6" height="53.3527" stroke="black" stroke-width="1" fill="blue"><title>(0.598739,736)</title></rect>
<rect x="96" y="151.722" width="6" height="48.2784" stroke="black" stroke-width="1" fill="blue"><title>(0.638655,666)</title></rect>
<rect x="102" y="154.331" width="6" height="45.6687" stroke="black" stroke-width="1" fill="blue"><title>(0.678571,630)</title></rect>
<rect x="108" y="154.404" width="6" height="45.5962" stroke="black" stroke-width="1" fill="blue"><title>(0.718487,629)</title></rect>
<rect x="114" y="159.406" width="6" height="40.5944" stroke="black" stroke-width="1" fill="blue"><title>(0.758403,560)</title></rect>
<rect x="120" y="160.928" width="6" height="39.0721" stroke="black" stroke-width="1" fill="blue"><title>(0.798319,539)</title></rect>
<rect x="126" y="163.103" width="6" height="36.8974" stroke="black" stroke-width="1" fill="blue"><title>(0.838235,509)</title></rect>
<rect x="132" y="164.117" width="6" height="35.8826" stroke="black" stroke-width="1" fill="blue"><title>(0.87815,495)</title></rect>
<rect x="138" y="165.93" width="6" height="34.0703" stroke="black" stroke-width="1" fill="blue"><title>(0.918066,470)</title></rect>
<rect x="144" y="168.684" width="6" height="31.3157" stroke="black" stroke-width="1" fill="blue"><title>(0.957982,432)</title></rect>
<rect x="150" y="173.251" width="6" height="26.7488" stroke="black" stroke-width="1" fill="blue"><title>(0.997898,369)</title></rect>
<rect x="156" y="172.019" width="6" height="27.9812" stroke="black" stroke-width="1" fill="blue"><title>(1.03781,386)</title></rect>
<rect x="162" y="171.294" width="6" height="28.7061" stroke="black" stroke-width="1" fill="blue"><title>(1.07773,396)</title></rect>
<rect x="168" y="174.556" width="6" height="25.444" stroke="black" stroke-width="1" fill="blue"><title>(1.11765,351)</title></rect>
<rect x="174" y="176.441" width="6" height="23.5593" stroke="black" stroke-width="1" fill="blue"><title>(1.15756,325)</title></rect>
<rect x="180" y="178.253" width="6" height="21.747" stroke="black" stroke-width="1" fill="blue"><title>(1.19748,300)</title></rect>
<rect x="186" y="177.963" width="6" height="22.037" stroke="black" stroke-width="1" fill="blue"><title>(1.23739,304)</title></rect>
<rect x="192" y="182.53" width="6" height="17.4701" stroke="black" stroke-width="1" fill="blue"><title>(1.27731,241)</title></rect>
<rect x="198" y="182.095" width="6" height="17.905" stroke="black" stroke-width="1" fill="blue"><title>(1.31723,247)</title></rect>
<rect x="204" y="182.965" width="6" height="17.0352" stroke="black" stroke-width="1" fill="blue"><title>(1.35714,235)</title></rect>
<rect x="210" y="183.545" width="6" height="16.4552" stroke="black" stroke-width="1" fill="blue"><title>(1.39706,227)</title></rect>
<rect x="216" y="183.69" width="6" height="16.3103" stroke="black" stroke-width="1" fill="blue"><title>(1.43697,225)</title></rect>
<rect x="222" y="184.995" width="6" height="15.0054" stroke="black" stroke-width="1" fill="blue"><title>(1.47689,207)</title></rect>
<rect x="228" y="187.459" width="6" height="12.5408" stroke="black" stroke-width="1" fill="blue"><title>(1.51681,173)</title></rect>
<rect x="234" y="188.692" width="6" height="11.3084" stroke="black" stroke-width="1" fill="blue"><title>(1.55672,156)</title></rect>
<rect x="240" y="187.532" width="6" height="12.4683" stroke="black" stroke-width="1" fill="blue"><title>(1.59664,172)</title></rect>
<rect x="246" y="188.982" width="6" height="11.0185" stroke="black" stroke-width="1" fill="blue"><title>(1.63655,152)</title></rect>
<rect x="252" y="187.169" width="6" height="12.8307" stroke="black" stroke-width="1" fill="blue"><title>(1.67647,177)</title></rect>
<rect x="258" y="189.416" width="6" height="10.5835" stroke="black" stroke-width="1" fill="blue"><title>(1.71639,146)</title></rect>
<rect x="264" y="190.069" width="6" height="9.93113" stroke="black" stroke-width="1" fill="blue"><title>(1.7563,137)</title></rect>
<rect x="270" y="190.069" width="6" height="9.93113" stroke="black" stroke-width="1" fill="blue"><title>(1.79622,137)</title></rect>
<rect x="276" y="192.244" width="6" height="7.75643" stroke="black" stroke-width="1" fill="blue"><title>(1.83613,107)</title></rect>
<rect x="282" y="192.099" width="6" height="7.90141" stroke="black" stroke-width="1" fill="blue"><title>(1.87605,109)</title></rect>
<rect x="288" y="192.606" width="6" height="7.39398" stroke="black" stroke-width="1" fill="blue"><title>(1.91596,102)</title></rect>
<rect x="294" y="192.534" width="6" height="7.46647" stroke="black" stroke-width="1" fill="blue"><title>(1.95588,103)</title></rect>
<rect x="300" y="194.563" width="6" height="5.43675" stroke="black" stroke-width="1" fill="blue"><title>(1.9958,75)</title></rect>
<rect x="306" y="193.911" width="6" height="6.08916" stroke="black" stroke-width="1" fill="blue"><title>(2.03571,84)</title></rect>
<rect x="312" y="193.911" width="6" height="6.08916" stroke="black" stroke-width="1" fill="blue"><title>(2.07563,84)</title></rect>
<rect x="318" y="194.056" width="6" height="5.94418" stroke="black" stroke-width="1" fill="blue"><title>(2.11554,82)</title></rect>
<rect x="324" y="194.491" width="6" height="5.50924" stroke="black" stroke-width="1" fill="blue"><title>(2.15546,76)</title></rect>
<rect x="330" y="195.071" width="6" height="4.92932" stroke="black" stroke-width="1" fill="blue"><title>(2.19538,68)</title></rect>
<rect x="336" y="195.796" width="6" height="4.20442" stroke="black" stroke-width="1" fill="blue"><title>(2.23529,58)</title></rect>
<rect x="342" y="196.231" width="6" height="3.76948" stroke="black" stroke-width="1" fill="blue"><title>(2.27521,52)</title></rect>
<rect x="348" y="195.723" width="6" height="4.27691" stroke="black" stroke-width="1" fill="blue"><title>(2.31512,59)</title></rect>
<rect x="354" y="194.708" width="6" height="5.29177" stroke="black" stroke-width="1" fill="blue"><title>(2.35504,73)</title></rect>
<rect x="360" y="197.028" width="6" height="2.97209" stroke="black" stroke-width="1" fill="blue"><title>(2.39496,41)</title></rect>
<rect x="366" y="196.158" width="6" height="3.84197" stroke="black" stroke-width="1" fill="blue"><title>(2.43487,53)</title></rect>
<rect x="372" y="196.303" width="6" height="3.69699" stroke="black" stroke-width="1" fill="blue"><title>(2.47479,51)</title></rect>
<rect x="378" y="196.013" width="6" height="3.98695" stroke="black" stroke-width="1" fill="blue"><title>(2.5147,55)</title></rect>
<rect x="384" y="196.955" width="6" height="3.04458" stroke="black" stroke-width="1" fill="blue"><title>(2.55462,42)</title></rect>
<rect x="390" y="196.883" width="6" height="3.11707" stroke="black" stroke-width="1" fill="blue"><title>(2.59454,43)</title></rect>
<rect x="396" y="196.955" width="6" height="3.04458" stroke="black" stroke-width="1" fill="blue"><title>(2.63445,42)</title></rect>
<rect x="402" y="197.39" width="6" height="2.60964" stroke="black" stroke-width="1" fill="blue"><title>(2.67437,36)</title></rect>
<rect x="408" y="197.898" width="6" height="2.10221" stroke="black" stroke-width="1" fill="blue"><title>(2.71428,29)</title></rect>
<rect x="414" y="197.898" width="6" height="2.10221" stroke="black" stroke-width="1" fill="blue"><title>(2.7542,29)</title></rect>
<rect x="420" y="197.173" width="6" height="2.82711" stroke="black" stroke-width="1" fill="blue"><title>(2.79412,39)</title></rect>
<rect x="426" y="197.97" width="6" height="2.02972" stroke="black" stroke-width="1" fill="blue"><title>(2.83403,28)</title></rect>
<rect x="432" y="198.188" width="6" height="1.81225" stroke="black" stroke-width="1" fill="blue"><title>(2.87395,25)</title></rect>
<rect x="438" y="198.26" width="6" height="1.73976" stroke="black" stroke-width="1" fill="blue"><title>(2.91386,24)</title></rect>
<rect x="444" y="198.478" width="6" height="1.52229" stroke="black" stroke-width="1" fill="blue"><title>(2.95378,21)</title></rect>
<rect x="450" y="198.188" width="6" height="1.81225" stroke="black" stroke-width="1" fill="blue"><title>(2.99369,25)</title></rect>
<rect x="456" y="197.97" width="6" height="2.02972" stroke="black" stroke-width="1" fill="blue"><title>(3.03361,28)</title></rect>
<rect x="462" y="198.26" width="6" height="1.73976" stroke="black" stroke-width="1" fill="blue"><title>(3.07353,24)</title></rect>
<rect x="468" y="198.623" width="6" height="1.37731" stroke="black" stroke-width="1" fill="blue"><title>(3.11344,19)</title></rect>
<rect x="474" y="198.695" width="6" height="1.30482" stroke="black" stroke-width="1" fill="blue"><title>(3.15336,18)</title></rect>
<rect x="480" y="199.348" width="6" height="0.65241" stroke="black" stroke-width="1" fill="blue"><title>(3.19327,9)</title></rect>
<rect x="486" y="199.275" width="6" height="0.7249" stroke="black" stroke-width="1" fill="blue"><title>(3.23319,10)</title></rect>
<rect x="492" y="199.058" width="6" height="0.94237" stroke="black" stroke-width="1" fill="blue"><title>(3.27311,13)</title></rect>
<rect x="498" y="199.42" width="6" height="0.57992" stroke="black" stroke-width="1" fill="blue"><title>(3.31302,8)</title></rect>
<rect x="504" y="199.058" width="6" height="0.94237" stroke="black" stroke-width="1" fill="blue"><title>(3.35294,13)</title></rect>
<rect x="510" y="198.84" width="6" height="1.15984" stroke="black" stroke-width="1" fill="blue"><title>(3.39285,16)</title></rect>
<rect x="516" y="199.493" width="6" height="0.50743" stroke="black" stroke-width="1" fill="blue"><title>(3.43277,7)</title></rect>
<rect x="522" y="199.348" width="6" height="0.65241" stroke="black" stroke-width="1" fill="blue"><title>(3.47269,9)</title></rect>
<rect x="528" y="199.71" width="6" height="0.28996" stroke="black" stroke-width="1" fill="blue"><title>(3.5126,4)</title></rect>
<rect x="534" y="199.638" width="6" height="0.36245" stroke="black" stroke-width="1" fill="blue"><title>(3.55252,5)</title></rect>
<rect x="540" y="199.275" width="6" height="0.7249" stroke="black" stroke-width="1" fill="blue"><title>(3.59243,10)</title></rect>
<rect x="546" y="199.493" width="6" height="0.50743" stroke="black" stroke-width="1" fill="blue"><title>(3.63235,7)</title></rect>
<rect x="552" y="199.783" width="6" height="0.21747" stroke="black" stroke-width="1" fill="blue"><title>(3.67227,3)</title></rect>
<rect x="558" y="199.348" width="6" height="0.65241" stroke="black" stroke-width="1" fill="blue"><title>(3.71218,9)</title></rect>
<rect x="564" y="199.565" width="6" height="0.43494" stroke="black" stroke-width="1" fill="blue"><title>(3.7521,6)</title></rect>
<rect x="570" y="200" width="6" height="0" stroke="black" stroke-width="1" fill="blue"><title>(3.79201,0)</title></rect>
<rect x="576" y="199.928" width="6" height="0.07249" stroke="black" stroke-width="1" fill="blue"><title>(3.83193,1)</title></rect>
<rect x="582" y="199.855" width="6" height="0.14498" stroke="black" stroke-width="1" fill="blue"><title>(3.87185,2)</title></rect>
<rect x="588" y="199.783" width="6" height="0.21747" stroke="black" stroke-width="1" fill="blue"><title>(3.91176,3)</title></rect>
<rect x="594" y="199.928" width="6" height="0.07249" stroke="black" stroke-width="1" fill="blue"><title>(3.95168,1)</title></rect>
<text x="30" y="240" font-size="20" fill="black">0</text>
<text x="600" y="240" font-size="20" fill="black">3.99159</text>
<polyline points="0,220,600,220" stroke="black" stroke-width="1" fill="none"></polyline>
<text x="720" y="20" font-size="20" fill="black">2759</text>
<text x="720" y="200" font-size="20" fill="black">0</text>
<polyline points="660,0,660,200" stroke="black" stroke-width="1" fill="none"></polyline>
</svg>